<?xml version="1.0" encoding="UTF-8"?>
<svg xmlns="http://www.w3.org/2000/svg" xmlns:xlink="http://www.w3.org/1999/xlink" width="30px" height="30px" viewBox="0 0 30 30" version="1.1">
<defs>
<filter id="alpha" filterUnits="objectBoundingBox" x="0%" y="0%" width="100%" height="100%">
  <feColorMatrix type="matrix" in="SourceGraphic" values="0 0 0 0 1 0 0 0 0 1 0 0 0 0 1 0 0 0 1 0"/>
</filter>
<mask id="mask0">
  <g filter="url(#alpha)">
<rect x="0" y="0" width="30" height="30" style="fill:rgb(0%,0%,0%);fill-opacity:0.2;stroke:none;"/>
  </g>
</mask>
<clipPath id="clip1">
  <rect x="0" y="0" width="30" height="30"/>
</clipPath>
<g id="surface5" clip-path="url(#clip1)">
<path style=" stroke:none;fill-rule:nonzero;fill:rgb(13.72549%,12.156863%,12.54902%);fill-opacity:1;" d="M 15 5.625 C 9.328125 5.625 4.6875 10.265625 4.6875 15.9375 C 4.6875 21.609375 9.328125 26.25 15 26.25 C 16.640625 26.25 18.28125 25.875 19.734375 25.125 C 20.203125 24.890625 20.390625 24.328125 20.15625 23.859375 C 19.921875 23.390625 19.359375 23.203125 18.890625 23.4375 C 17.671875 24.046875 16.40625 24.375 15.046875 24.375 C 10.40625 24.375 6.609375 20.578125 6.609375 15.9375 C 6.609375 11.296875 10.40625 7.5 15.046875 7.5 C 19.6875 7.5 23.484375 11.296875 23.484375 15.9375 C 23.484375 17.34375 23.109375 18.75 22.453125 19.96875 C 21.609375 19.3125 20.390625 18 20.390625 15.984375 L 20.390625 11.859375 C 20.390625 11.34375 19.96875 10.921875 19.453125 10.921875 C 18.9375 10.921875 18.515625 11.34375 18.515625 11.859375 L 18.515625 11.90625 C 17.578125 11.109375 16.359375 10.59375 15.046875 10.59375 C 12.09375 10.59375 9.703125 12.984375 9.703125 15.9375 C 9.703125 18.890625 12.046875 21.28125 15 21.28125 C 16.734375 21.28125 18.28125 20.4375 19.265625 19.125 C 20.34375 21.09375 22.171875 22.078125 22.265625 22.125 C 22.6875 22.359375 23.203125 22.21875 23.484375 21.84375 C 24.703125 20.109375 25.3125 18.09375 25.3125 15.9375 C 25.3125 10.265625 20.671875 5.625 15 5.625 Z M 15 19.40625 C 13.078125 19.40625 11.53125 17.859375 11.53125 15.9375 C 11.53125 14.015625 13.078125 12.46875 15 12.46875 C 16.921875 12.46875 18.46875 14.015625 18.46875 15.9375 C 18.46875 17.859375 16.921875 19.40625 15 19.40625 Z M 15 19.40625 "/>
</g>
</defs>
<g id="surface1">
<path style=" stroke:none;fill-rule:nonzero;fill:rgb(46.666667%,70.196078%,83.137255%);fill-opacity:1;" d="M 30 15 C 30 23.285156 23.285156 30 15 30 C 6.714844 30 0 23.285156 0 15 C 0 6.714844 6.714844 0 15 0 C 23.285156 0 30 6.714844 30 15 Z M 30 15 "/>
<use xlink:href="#surface5" mask="url(#mask0)"/>
<path style=" stroke:none;fill-rule:nonzero;fill:rgb(100%,100%,100%);fill-opacity:1;" d="M 15 25.3125 C 9.328125 25.3125 4.6875 20.671875 4.6875 15 C 4.6875 9.328125 9.328125 4.6875 15 4.6875 C 20.671875 4.6875 25.3125 9.328125 25.3125 15 C 25.3125 17.109375 24.65625 19.171875 23.484375 20.90625 C 23.203125 21.28125 22.6875 21.421875 22.265625 21.1875 C 22.125 21.09375 18.46875 19.21875 18.46875 15.046875 L 18.46875 10.921875 C 18.46875 10.40625 18.890625 9.984375 19.40625 9.984375 C 19.921875 9.984375 20.34375 10.40625 20.34375 10.921875 L 20.34375 15.046875 C 20.34375 17.0625 21.5625 18.375 22.40625 19.03125 C 23.0625 17.8125 23.4375 16.40625 23.4375 15 C 23.4375 10.359375 19.640625 6.5625 15 6.5625 C 10.359375 6.5625 6.5625 10.359375 6.5625 15 C 6.5625 19.640625 10.359375 23.4375 15 23.4375 C 16.359375 23.4375 17.671875 23.109375 18.84375 22.5 C 19.3125 22.265625 19.875 22.453125 20.109375 22.921875 C 20.34375 23.390625 20.15625 23.953125 19.6875 24.1875 C 18.28125 24.9375 16.640625 25.3125 15 25.3125 Z M 15 25.3125 "/>
<path style=" stroke:none;fill-rule:nonzero;fill:rgb(100%,100%,100%);fill-opacity:1;" d="M 15 11.53125 C 16.921875 11.53125 18.46875 13.078125 18.46875 15 C 18.46875 16.921875 16.921875 18.46875 15 18.46875 C 13.078125 18.46875 11.53125 16.921875 11.53125 15 C 11.53125 13.078125 13.078125 11.53125 15 11.53125 M 15 9.65625 C 12.046875 9.65625 9.65625 12.046875 9.65625 15 C 9.65625 17.953125 12.046875 20.34375 15 20.34375 C 17.953125 20.34375 20.34375 17.953125 20.34375 15 C 20.34375 12.046875 17.953125 9.65625 15 9.65625 Z M 15 9.65625 "/>
</g>
</svg>
